<?xml version="1.0" encoding="UTF-8"?> <svg xmlns="http://www.w3.org/2000/svg" width="119" height="96" viewBox="0 0 119 96" fill="none"><path fill-rule="evenodd" clip-rule="evenodd" d="M101.669 47.4194C101.669 72.1055 81.6565 92.1163 56.9717 92.1163C32.2857 92.1163 12.2737 72.1055 12.2737 47.4194C12.2737 22.7334 32.2857 2.7226 56.9717 2.7226C81.6565 2.7226 101.669 22.7334 101.669 47.4194" fill="white"></path><mask id="mask0_166_4418" style="mask-type:alpha" maskUnits="userSpaceOnUse" x="13" y="34" width="27" height="27"><path fill-rule="evenodd" clip-rule="evenodd" d="M16.966 38.0854C11.8109 43.204 11.7814 51.5321 16.9 56.6872V56.6872C22.0173 61.8411 30.3466 61.8706 35.5005 56.7532V56.7532C40.6556 51.6346 40.6851 43.3077 35.5678 38.1526V38.1526C32.9961 35.5621 29.6156 34.2662 26.2339 34.2662V34.2662C22.8828 34.2662 19.5317 35.5385 16.966 38.0854" fill="white"></path></mask><g mask="url(#mask0_166_4418)"><path fill-rule="evenodd" clip-rule="evenodd" d="M16.966 38.0854C11.8109 43.204 11.7814 51.5321 16.9 56.6872V56.6872C22.0173 61.8411 30.3466 61.8706 35.5005 56.7532V56.7532C40.6556 51.6346 40.6851 43.3077 35.5678 38.1526V38.1526C32.9961 35.5621 29.6156 34.2662 26.2339 34.2662V34.2662C22.8828 34.2662 19.5317 35.5385 16.966 38.0854" fill="url(#paint0_linear_166_4418)"></path></g><mask id="mask1_166_4418" style="mask-type:alpha" maskUnits="userSpaceOnUse" x="10" y="30" width="33" height="34"><path fill-rule="evenodd" clip-rule="evenodd" d="M21.9572 31.4423L23.7023 37.9816C25.3578 37.5395 27.1076 37.5395 28.7642 37.9816V37.9816L30.507 31.4423C29.1085 31.0697 27.67 30.8822 26.2315 30.8822V30.8822C24.7941 30.8822 23.3556 31.0697 21.9572 31.4423V31.4423ZM10.2603 43.1297L16.7974 44.8795C17.2384 43.2334 18.1133 41.7218 19.3277 40.5097V40.5097L14.5464 35.7213C12.4912 37.7729 11.0091 40.3352 10.2603 43.1297V43.1297ZM33.1281 40.4967L33.1671 40.5368C34.3768 41.7548 35.2458 43.27 35.6798 44.9184V44.9184L42.2239 43.1933C41.4869 40.3977 40.0154 37.8295 37.9684 35.7684V35.7684L37.9295 35.7283L33.1281 40.4967ZM10.2521 51.6783C10.9914 54.461 12.4594 57.0173 14.4981 59.0702V59.0702L14.5169 59.0902L19.3006 54.303C18.0956 53.0885 17.2289 51.5804 16.7926 49.9414V49.9414L10.2521 51.6783ZM33.1246 54.3454L37.8965 59.1433C39.9564 57.0952 41.4433 54.5365 42.1979 51.7443V51.7443L35.6644 49.9792C35.2199 51.6252 34.3415 53.1345 33.1246 54.3454V54.3454ZM21.9253 63.3881C24.721 64.1392 27.6771 64.1451 30.4751 63.4046V63.4046L28.7442 56.8629C27.0887 57.3015 25.3389 57.2968 23.6822 56.8523V56.8523L21.9253 63.3881Z" fill="white"></path></mask><g mask="url(#mask1_166_4418)"><path fill-rule="evenodd" clip-rule="evenodd" d="M21.9572 31.4423L23.7023 37.9816C25.3578 37.5395 27.1076 37.5395 28.7642 37.9816V37.9816L30.507 31.4423C29.1085 31.0697 27.67 30.8822 26.2315 30.8822V30.8822C24.7941 30.8822 23.3556 31.0697 21.9572 31.4423V31.4423ZM10.2603 43.1297L16.7974 44.8795C17.2384 43.2334 18.1133 41.7218 19.3277 40.5097V40.5097L14.5464 35.7213C12.4912 37.7729 11.0091 40.3352 10.2603 43.1297V43.1297ZM33.1281 40.4967L33.1671 40.5368C34.3768 41.7548 35.2458 43.27 35.6798 44.9184V44.9184L42.2239 43.1933C41.4869 40.3977 40.0154 37.8295 37.9684 35.7684V35.7684L37.9295 35.7283L33.1281 40.4967ZM10.2521 51.6783C10.9914 54.461 12.4594 57.0173 14.4981 59.0702V59.0702L14.5169 59.0902L19.3006 54.303C18.0956 53.0885 17.2289 51.5804 16.7926 49.9414V49.9414L10.2521 51.6783ZM33.1246 54.3454L37.8965 59.1433C39.9564 57.0952 41.4433 54.5365 42.1979 51.7443V51.7443L35.6644 49.9792C35.2199 51.6252 34.3415 53.1345 33.1246 54.3454V54.3454ZM21.9253 63.3881C24.721 64.1392 27.6771 64.1451 30.4751 63.4046V63.4046L28.7442 56.8629C27.0887 57.3015 25.3389 57.2968 23.6822 56.8523V56.8523L21.9253 63.3881Z" fill="url(#paint1_linear_166_4418)"></path></g><path fill-rule="evenodd" clip-rule="evenodd" d="M30.6622 43.0224C33.0901 45.4679 33.0759 49.4203 30.6304 51.8481C28.1849 54.2771 24.2337 54.2617 21.8047 51.8162C19.3769 49.3707 19.3911 45.4195 21.8365 42.9905C24.282 40.5627 28.2333 40.5769 30.6622 43.0224" fill="white"></path><mask id="mask2_166_4418" style="mask-type:alpha" maskUnits="userSpaceOnUse" x="75" y="34" width="28" height="27"><path fill-rule="evenodd" clip-rule="evenodd" d="M79.6137 38.3424C74.4586 43.4598 74.4291 51.7891 79.5465 56.9442V56.9442C84.6651 62.0981 92.992 62.1288 98.1471 57.0103V57.0103C103.303 51.8929 103.333 43.5648 98.2143 38.4085V38.4085C95.6438 35.8191 92.2621 34.5233 88.8804 34.5233V34.5233C85.5305 34.5233 82.1783 35.7956 79.6137 38.3424" fill="white"></path></mask><g mask="url(#mask2_166_4418)"><path fill-rule="evenodd" clip-rule="evenodd" d="M79.6137 38.3424C74.4586 43.4598 74.4291 51.7891 79.5465 56.9442V56.9442C84.6651 62.0981 92.992 62.1288 98.1471 57.0103V57.0103C103.303 51.8929 103.333 43.5648 98.2143 38.4085V38.4085C95.6438 35.8191 92.2621 34.5233 88.8804 34.5233V34.5233C85.5305 34.5233 82.1783 35.7956 79.6137 38.3424" fill="url(#paint2_linear_166_4418)"></path></g><mask id="mask3_166_4418" style="mask-type:alpha" maskUnits="userSpaceOnUse" x="72" y="31" width="33" height="34"><path fill-rule="evenodd" clip-rule="evenodd" d="M84.6049 31.7005L86.3488 38.2375C88.0043 37.7965 89.7541 37.7965 91.4108 38.2375V38.2375L93.1547 31.6993C91.7562 31.3255 90.3189 31.1392 88.8804 31.1392V31.1392C87.4418 31.1392 86.0033 31.3267 84.6049 31.7005V31.7005ZM72.908 43.3855L79.4451 45.1365C79.8849 43.4905 80.761 41.9789 81.9755 40.7655V40.7655L77.193 35.9783C75.1377 38.03 73.6556 40.5922 72.908 43.3855V43.3855ZM95.7735 40.7538L95.8136 40.7938C97.0234 42.0119 97.8936 43.527 98.3275 45.1754V45.1754L104.87 43.4504C104.133 40.6547 102.662 38.0866 100.616 36.0255V36.0255L100.577 35.9854L95.7735 40.7538ZM72.8998 51.9353C73.6379 54.7181 75.1071 57.2744 77.1458 59.3272V59.3272L77.1647 59.3473L81.9472 54.56C80.7433 53.3456 79.8743 51.8375 79.4392 50.1973V50.1973L72.8998 51.9353ZM95.7711 54.6025L100.544 59.3991C102.604 57.351 104.091 54.7935 104.844 52.0014V52.0014L98.311 50.2362C97.8664 51.8823 96.9892 53.3915 95.7711 54.6025V54.6025ZM84.5731 63.644C87.3676 64.3963 90.3248 64.4021 93.1228 63.6628V63.6628L91.3919 57.1199C89.7352 57.5585 87.9842 57.5538 86.3299 57.1093V57.1093L84.5731 63.644Z" fill="white"></path></mask><g mask="url(#mask3_166_4418)"><path fill-rule="evenodd" clip-rule="evenodd" d="M84.6049 31.7005L86.3488 38.2375C88.0043 37.7965 89.7541 37.7965 91.4108 38.2375V38.2375L93.1547 31.6993C91.7562 31.3255 90.3189 31.1392 88.8804 31.1392V31.1392C87.4418 31.1392 86.0033 31.3267 84.6049 31.7005V31.7005ZM72.908 43.3855L79.4451 45.1365C79.8849 43.4905 80.761 41.9789 81.9755 40.7655V40.7655L77.193 35.9783C75.1377 38.03 73.6556 40.5922 72.908 43.3855V43.3855ZM95.7735 40.7538L95.8136 40.7938C97.0234 42.0119 97.8936 43.527 98.3275 45.1754V45.1754L104.87 43.4504C104.133 40.6547 102.662 38.0866 100.616 36.0255V36.0255L100.577 35.9854L95.7735 40.7538ZM72.8998 51.9353C73.6379 54.7181 75.1071 57.2744 77.1458 59.3272V59.3272L77.1647 59.3473L81.9472 54.56C80.7433 53.3456 79.8743 51.8375 79.4392 50.1973V50.1973L72.8998 51.9353ZM95.7711 54.6025L100.544 59.3991C102.604 57.351 104.091 54.7935 104.844 52.0014V52.0014L98.311 50.2362C97.8664 51.8823 96.9892 53.3915 95.7711 54.6025V54.6025ZM84.5731 63.644C87.3676 64.3963 90.3248 64.4021 93.1228 63.6628V63.6628L91.3919 57.1199C89.7352 57.5585 87.9842 57.5538 86.3299 57.1093V57.1093L84.5731 63.644Z" fill="url(#paint3_linear_166_4418)"></path></g><path fill-rule="evenodd" clip-rule="evenodd" d="M93.3092 43.2793C95.7381 45.7248 95.7228 49.676 93.2773 52.105C90.8318 54.5328 86.8806 54.5187 84.4516 52.0732C82.0238 49.6277 82.038 45.6764 84.4835 43.2475C86.929 40.8197 90.8802 40.8338 93.3092 43.2793" fill="white"></path><path d="M64.701 60.837C69.882 66.8128 77.4366 70.3489 85.49 70.389L89.1311 70.4079C101.684 70.4527 111.898 60.3123 111.942 47.7594V47.7594C111.988 35.2112 101.856 25 89.308 24.9482H89.295C79.1157 24.9045 69.6532 30.1799 64.3378 38.8606L53.6715 56.2797C48.356 64.9615 38.8936 70.2369 28.7143 70.1933L24.6475 70.1756C12.0946 70.1308 1.95417 59.9173 2.00016 47.3644V47.3207C2.04496 34.7738 12.2656 24.6463 24.8114 24.7159L26.7817 24.7265C36.3667 24.7795 45.2431 29.7837 50.2485 37.9585" stroke="#242E3D" stroke-width="4"></path><path d="M1.48712 10.3732H63.5842" stroke="#242E3D" stroke-width="4" stroke-dasharray="7 6"></path><path d="M60.0216 2.29492L68.1917 10.465L60.2044 18.4512" stroke="#242E3D" stroke-width="4"></path><path d="M118.659 86.2168H56.5621" stroke="#242E3D" stroke-width="4" stroke-dasharray="7 6"></path><path d="M58.9457 94.2949L50.7756 86.1248L58.763 78.1386" stroke="#242E3D" stroke-width="4"></path><defs><linearGradient id="paint0_linear_166_4418" x1="26.1668" y1="66.0206" x2="44.8347" y2="47.4858" gradientUnits="userSpaceOnUse"><stop stop-color="#FFD314"></stop><stop offset="1" stop-color="#E98304"></stop></linearGradient><linearGradient id="paint1_linear_166_4418" x1="25.7614" y1="71.2105" x2="49.9932" y2="48.7285" gradientUnits="userSpaceOnUse"><stop stop-color="#FFD314"></stop><stop offset="1" stop-color="#E98304"></stop></linearGradient><linearGradient id="paint2_linear_166_4418" x1="88.8136" y1="66.2778" x2="107.482" y2="47.7434" gradientUnits="userSpaceOnUse"><stop stop-color="#FFD314"></stop><stop offset="1" stop-color="#E98304"></stop></linearGradient><linearGradient id="paint3_linear_166_4418" x1="88.408" y1="71.4679" x2="112.641" y2="48.9868" gradientUnits="userSpaceOnUse"><stop stop-color="#FFD314"></stop><stop offset="1" stop-color="#E98304"></stop></linearGradient></defs></svg>