<?xml version="1.0" encoding="UTF-8"?> <svg xmlns="http://www.w3.org/2000/svg" width="153" height="154" viewBox="0 0 153 154" fill="none"><path fill-rule="evenodd" clip-rule="evenodd" d="M1.62695 2.21893V105.279L49.3701 153.037H152.397V50.4943L104.136 2.21893H1.62695Z" fill="white"></path><path fill-rule="evenodd" clip-rule="evenodd" d="M1.62695 2.21892V105.279L49.3701 153.037H152.397V50.4943L104.136 2.21469L1.62695 2.21892ZM4.76984 103.976V5.35757H102.843L149.254 51.7911V149.89H50.6754L4.76984 103.976Z" fill="#242E3D"></path><path fill-rule="evenodd" clip-rule="evenodd" d="M63.7817 41.6271C62.903 41.6292 62.0222 41.5299 61.1689 41.3292C60.4888 41.192 59.8235 40.9617 59.2089 40.6449C58.9829 40.5435 58.8054 40.3788 58.6808 40.1697C58.6175 40.0197 58.5794 39.8571 58.5794 39.6923V38.8306C58.5794 38.4736 58.7062 38.2962 58.9702 38.2962C59.0695 38.2962 59.1835 38.3173 59.2828 38.3553C59.3842 38.3955 59.5341 38.4546 59.7116 38.5328C60.3135 38.7989 60.9429 38.9995 61.5829 39.1263C62.2482 39.2657 62.9262 39.3354 63.6064 39.3354C64.4723 39.3861 65.3278 39.1896 66.0924 38.7714C66.6457 38.4356 66.9858 37.821 66.9731 37.1641C66.9858 36.7226 66.8105 36.2939 66.5085 35.9749C66.0058 35.5546 65.427 35.2484 64.7997 35.0836L62.3243 34.3085C61.2682 34.0318 60.3135 33.4298 59.6102 32.5828C59.0568 31.8774 58.7569 31.0093 58.7569 30.1137C58.7442 29.4568 58.9068 28.8063 59.2215 28.2297C59.5215 27.6847 59.9376 27.2095 60.4402 26.8314C60.9683 26.4322 61.5702 26.1323 62.2102 25.9528C62.903 25.7521 63.619 25.6507 64.3477 25.655C64.7237 25.655 65.1144 25.6803 65.4904 25.7289C65.879 25.7796 66.2444 25.8451 66.5951 25.9232C66.9351 26.0035 67.2625 26.0922 67.5624 26.1914C67.8011 26.2696 68.0419 26.3689 68.2679 26.4871C68.4685 26.5928 68.6312 26.7343 68.7706 26.9054C68.8825 27.0722 68.9332 27.2708 68.9205 27.4714V28.274C68.9205 28.631 68.7938 28.8084 68.5319 28.8084C68.3038 28.7809 68.0778 28.7112 67.8771 28.5993C66.8464 28.1536 65.7417 27.9297 64.6117 27.9445C63.8324 27.9023 63.053 28.067 62.3496 28.4219C61.8216 28.7345 61.5069 29.3217 61.5449 29.9384C61.5449 30.3946 61.7202 30.8318 62.0476 31.1444C62.601 31.5838 63.241 31.9027 63.919 32.0801L66.3332 32.8553C67.3618 33.1172 68.2806 33.6875 68.9712 34.488C69.4993 35.1723 69.7738 36.0087 69.7612 36.8684C69.7738 37.5548 69.6239 38.2328 69.3092 38.8475C69.0198 39.4304 68.5932 39.9437 68.0778 40.3492C67.5138 40.7843 66.8844 41.1075 66.1937 41.2997C65.4144 41.5257 64.5991 41.6355 63.7817 41.6292V41.6271ZM41.9589 41.1814C41.7308 41.2004 41.5048 41.1434 41.3041 41.0188C41.1288 40.835 41.0021 40.6006 40.9535 40.3492L36.97 27.2011C36.8813 26.9793 36.8454 26.7491 36.82 26.5167C36.782 26.3161 36.9193 26.1302 37.12 26.1006C37.158 26.0964 37.196 26.0964 37.234 26.1006H38.8921C39.1307 26.0774 39.3694 26.1365 39.5701 26.2633C39.7348 26.4534 39.8594 26.6815 39.9101 26.9328L42.7615 38.1779L45.4123 26.9328C45.4376 26.6794 45.5643 26.447 45.7397 26.2633C45.9403 26.1365 46.179 26.0795 46.4177 26.1006H47.7884C48.0271 26.0795 48.2658 26.1365 48.4664 26.2633C48.6544 26.447 48.7685 26.6815 48.7938 26.9328L51.4805 38.3258L54.4206 26.9328C54.4713 26.6815 54.5854 26.4534 54.7607 26.2633C54.9613 26.1365 55.2 26.0774 55.426 26.1006H57.0101C57.2108 26.0711 57.3987 26.2105 57.4241 26.4111V26.5167C57.4241 26.6075 57.4114 26.6963 57.3987 26.785C57.3607 26.9244 57.3248 27.0638 57.2741 27.2011L53.166 40.3492C53.1153 40.6006 52.9886 40.835 52.8133 41.0188C52.6126 41.1434 52.3866 41.2004 52.1606 41.1814H50.6905C50.4519 41.2025 50.2132 41.1413 50.0104 41.004C49.8351 40.8139 49.7232 40.5752 49.6852 40.3196L47.0344 29.3723L44.4196 40.3196C44.3837 40.5752 44.2696 40.8118 44.0943 41.004C43.8936 41.1413 43.655 41.2025 43.4163 41.1814H41.9589ZM28.3144 39.3375C28.9164 39.329 29.5078 39.2234 30.0717 39.0249C30.6885 38.8116 31.2418 38.4377 31.6812 37.9392C31.9452 37.6288 32.1458 37.2549 32.2578 36.8536C32.3718 36.372 32.4352 35.8778 32.4225 35.3814V34.6675C31.9072 34.545 31.3791 34.45 30.8511 34.3845C30.3357 34.3169 29.795 34.2831 29.2691 34.281C28.3756 34.2134 27.4843 34.4542 26.743 34.9653C25.7122 35.9813 25.6256 37.6055 26.5296 38.7271C27.0196 39.1622 27.6596 39.3818 28.3144 39.3375V39.3375ZM35.2106 36.7501C35.1979 37.2612 35.2613 37.7745 35.4112 38.2666C35.5506 38.6891 35.7386 39.0967 35.9519 39.4875C36.028 39.6015 36.066 39.7346 36.0787 39.8719C36.0533 40.0831 35.9393 40.2711 35.7513 40.3746L34.6825 41.0885C34.5452 41.1793 34.3953 41.2321 34.2305 41.2384C34.0426 41.23 33.8546 41.1434 33.7278 40.9998C33.4892 40.7632 33.2885 40.4992 33.1259 40.2119C32.9506 39.9247 32.7858 39.5909 32.5978 39.215C31.3918 40.7273 29.5437 41.5954 27.6089 41.5637C26.3543 41.6313 25.1356 41.192 24.2168 40.345C22.4342 38.3912 22.5714 35.3688 24.5062 33.5776C25.6869 32.6441 27.1696 32.1731 28.6777 32.2533C29.2818 32.2554 29.8711 32.2998 30.4751 32.3885C31.1024 32.4772 31.7424 32.6039 32.4225 32.7645V31.5162C32.5218 30.5383 32.2324 29.5624 31.6178 28.7957C30.8257 28.1895 29.8457 27.9086 28.853 28.0079C28.2384 28.01 27.6216 28.0839 27.0196 28.2297C26.4029 28.3775 25.7883 28.5718 25.1969 28.8105C25.0089 28.8971 24.8082 28.971 24.5949 29.0323C24.5189 29.0576 24.4196 29.0724 24.3309 29.0788C24.0922 29.0788 23.9781 28.8992 23.9781 28.5423V27.7101C23.9655 27.5031 24.0035 27.2961 24.1049 27.1145C24.2295 26.9582 24.3942 26.8335 24.5822 26.7575C25.2602 26.428 25.9762 26.1682 26.7176 25.9845C27.573 25.7627 28.4644 25.6507 29.3557 25.6571C30.9651 25.5177 32.5598 26.014 33.8039 27.0384C34.8219 28.1811 35.3373 29.6913 35.2232 31.2205L35.2106 36.7501Z" fill="#242E3D"></path><path fill-rule="evenodd" clip-rule="evenodd" d="M67.8524 53.6184C67.6517 54.1295 68.091 54.3344 68.543 53.9479C71.5465 51.4344 72.3259 46.173 71.7091 45.4148C71.0945 44.6544 65.8543 44.0123 62.6501 46.2617C62.1601 46.606 62.2488 47.0834 62.7895 47.0158C64.5975 46.7982 68.6064 46.3167 69.3224 47.2333C70.0384 48.1479 68.5304 51.9265 67.8524 53.6141M66.9969 49.8925C61.3955 54.0218 53.2912 56.2184 46.3042 56.2184C36.9706 56.267 27.9622 52.8284 21.0259 46.5743C20.5106 46.1012 20.9752 45.4549 21.6046 45.8203C29.3056 50.2241 38.0245 52.5369 46.8956 52.5306C53.5172 52.4989 60.0754 51.1577 66.1816 48.583C67.1237 48.1817 67.9284 49.2124 66.9969 49.8904" fill="#FF9900"></path><path fill-rule="evenodd" clip-rule="evenodd" d="M45.9788 83.2789C45.9534 82.1996 46.1668 81.1288 46.6188 80.1466C47.0222 79.2806 47.6875 78.5604 48.5176 78.083C50.3636 77.1199 52.5624 77.1114 54.421 78.0577C55.2511 78.5266 55.9165 79.2342 56.3304 80.0875C56.8099 81.0823 57.0486 82.1764 57.0105 83.2789C57.0591 84.5568 56.7339 85.822 56.0918 86.9245C55.4898 87.8919 54.5605 88.6058 53.4664 88.9353C53.931 89.1866 54.421 89.383 54.9364 89.5119C55.5405 89.6619 56.1551 89.7569 56.7845 89.7991V91.7909C55.7792 91.6726 54.7865 91.3875 53.8698 90.9503C52.9256 90.5088 52.047 89.9216 51.2803 89.212C49.8102 89.2458 48.3909 88.6501 47.3855 87.5708C46.3928 86.369 45.8901 84.8356 45.9788 83.2789M48.4922 83.2789C48.4162 84.316 48.6929 85.3467 49.2589 86.2169C50.3383 87.4525 52.2223 87.575 53.4537 86.4936C53.5551 86.407 53.6438 86.3162 53.7304 86.2169C54.7484 84.3941 54.7484 82.1722 53.7304 80.3494C52.6257 79.1138 50.7396 79.0039 49.4976 80.1044C49.4089 80.1804 49.3329 80.2628 49.2589 80.3494C48.6929 81.2175 48.4162 82.244 48.4922 83.2789" fill="#242E3D"></path><path fill-rule="evenodd" clip-rule="evenodd" d="M66.5211 77.6232H68.9712V84.7876C69.0473 85.9979 68.5932 87.187 67.7525 88.0551C65.7037 89.597 62.8903 89.5991 60.8542 88.0636C60.0009 87.1891 59.5489 85.9937 59.6355 84.775V77.6232H62.0856V84.8869C62.0349 85.5184 62.2377 86.1436 62.6517 86.6252C63.6064 87.4194 64.9877 87.4194 65.9424 86.6252C66.3585 86.1436 66.5592 85.5184 66.5211 84.8869V77.6232Z" fill="#242E3D"></path><path fill-rule="evenodd" clip-rule="evenodd" d="M78.4551 88.9346L77.6631 86.3557H73.7936L73.0269 88.9346H70.4648L74.4463 77.6241H77.135L81.1185 88.9346H78.4551ZM74.3216 84.5942H77.1604L75.7157 79.8608L74.3216 84.5942Z" fill="#242E3D"></path><path fill-rule="evenodd" clip-rule="evenodd" d="M83.1172 88.9346V77.6241H85.5546V86.9767H90.5182V88.9346H83.1172Z" fill="#242E3D"></path><mask id="mask0_78_2796" style="mask-type:alpha" maskUnits="userSpaceOnUse" x="0" y="0" width="153" height="154"><path fill-rule="evenodd" clip-rule="evenodd" d="M0.371094 153.037H152.446V0.962402H0.371094V153.037Z" fill="white"></path></mask><g mask="url(#mask0_78_2796)"><path fill-rule="evenodd" clip-rule="evenodd" d="M92.5762 88.9336H95.0263V77.623H92.5762V88.9336Z" fill="#242E3D"></path><path fill-rule="evenodd" clip-rule="evenodd" d="M98.207 88.9346V77.6241H105.319V79.5165H100.657V82.3574H104.377V84.2499H100.657V88.9346H98.207Z" fill="#242E3D"></path><path fill-rule="evenodd" clip-rule="evenodd" d="M107.49 88.9336H109.94V77.623H107.49V88.9336Z" fill="#242E3D"></path><path fill-rule="evenodd" clip-rule="evenodd" d="M113.119 88.9346V77.6241H120.556V79.5165H115.569V82.1948H119.627V84.0872H115.569V87.04H120.556V88.9346H113.119Z" fill="#242E3D"></path><path fill-rule="evenodd" clip-rule="evenodd" d="M123.209 88.9346V77.624H127.266C128.711 77.5311 130.133 78.0613 131.161 79.0835C132.971 81.578 132.971 84.9595 131.161 87.4561C130.156 88.4826 128.749 89.0212 127.317 88.9346H123.209ZM125.646 79.5165V87.0485H127.053C129.026 87.0485 130.006 85.8466 130.006 83.443V83.1177C130.006 80.7226 129.013 79.5271 127.04 79.5271L125.646 79.5165Z" fill="#242E3D"></path><path fill-rule="evenodd" clip-rule="evenodd" d="M45.7255 100.331C44.9208 100.082 44.2047 99.6301 43.6281 99.0176C42.6227 97.6426 42.8361 95.7184 44.1308 94.6032C45.0095 93.9548 46.0782 93.6316 47.1702 93.6887C48.239 93.6887 49.3056 93.8893 50.311 94.2758V96.1366C49.3563 95.8283 48.3636 95.6614 47.3709 95.6466C46.0888 95.6466 45.4488 96.0606 45.4488 96.8865C45.4361 97.1758 45.5629 97.4525 45.7762 97.6405C46.1522 97.9172 46.5788 98.1263 47.0329 98.2615L48.239 98.7029C49.0543 98.9521 49.7956 99.3957 50.3997 99.9998C50.839 100.543 51.065 101.231 51.0397 101.935C51.0777 102.959 50.6384 103.945 49.8336 104.585C48.8663 105.282 47.6982 105.624 46.5176 105.557C45.9008 105.557 45.2988 105.5 44.6948 105.386C44.1541 105.293 43.6281 105.137 43.1254 104.919V103.06C43.7021 103.229 44.2808 103.36 44.8701 103.451C45.4235 103.544 45.9895 103.593 46.5556 103.599C47.0688 103.628 47.5842 103.508 48.0362 103.246C48.3763 103.031 48.5769 102.646 48.5642 102.241C48.5769 101.941 48.465 101.649 48.239 101.442C47.8482 101.153 47.4216 100.933 46.9569 100.79L45.7255 100.331Z" fill="#242E3D"></path><path fill-rule="evenodd" clip-rule="evenodd" d="M53.1133 99.6175C53.088 98.5382 53.3013 97.4673 53.7533 96.4852C54.1568 95.6192 54.8221 94.8989 55.6522 94.4216C57.4982 93.4606 59.6969 93.4521 61.5429 94.3962C62.373 94.8651 63.0384 95.5727 63.465 96.426C63.9445 97.4208 64.1705 98.5149 64.1451 99.6175C64.1705 100.699 63.9445 101.774 63.4904 102.76C63.089 103.626 62.4364 104.349 61.6063 104.832C60.7023 105.341 59.6716 105.595 58.6282 105.565C57.6122 105.591 56.6068 105.348 55.7007 104.864C54.8728 104.393 54.2053 103.681 53.7913 102.824C53.314 101.823 53.088 100.724 53.1133 99.6175M55.6268 99.6175C55.5634 100.655 55.8275 101.685 56.3935 102.555C57.4728 103.791 59.3569 103.914 60.5883 102.832C60.6896 102.746 60.7784 102.655 60.8649 102.555C61.883 100.733 61.883 98.5107 60.8649 96.6879C59.7603 95.4523 57.8741 95.3425 56.6322 96.4429C56.5562 96.519 56.4674 96.6013 56.3935 96.6879C55.8275 97.556 55.5508 98.5846 55.6268 99.6175" fill="#242E3D"></path><path fill-rule="evenodd" clip-rule="evenodd" d="M66.8711 105.273V93.9624H73.9827V95.8549H69.3212V98.6957H73.0407V100.588H69.3212V105.273H66.8711Z" fill="#242E3D"></path><path fill-rule="evenodd" clip-rule="evenodd" d="M79.0073 105.273V95.9204H75.5645V93.9624H84.9002V95.9204H81.4574V105.273H79.0073Z" fill="#242E3D"></path><path fill-rule="evenodd" clip-rule="evenodd" d="M95.7176 105.273L93.9201 97.2933L92.1861 105.273H89.5353L86.3945 93.9624H89.1086L90.9061 102.612L92.7014 94.2391H95.2782L97.0989 102.58L98.8583 93.9624H101.496L98.381 105.273H95.7176Z" fill="#242E3D"></path><path fill-rule="evenodd" clip-rule="evenodd" d="M109.802 105.273L108.997 102.694H105.128L104.361 105.273H101.799L105.78 93.9624H108.469L112.453 105.273H109.802ZM105.656 100.933H108.494L107.05 96.1992L105.656 100.933Z" fill="#242E3D"></path><path fill-rule="evenodd" clip-rule="evenodd" d="M114.451 105.273V93.9624H118.811C119.816 93.9054 120.821 94.2391 121.601 94.8917C122.291 95.5423 122.667 96.4674 122.617 97.4221C122.629 98.0494 122.441 98.664 122.091 99.1815C121.7 99.7222 121.172 100.147 120.57 100.404L123.371 105.269H120.847L118.397 100.88H116.8V105.273H114.451ZM116.8 99.1857H118.496C119.326 99.2998 120.093 98.7168 120.205 97.8847C120.23 97.7431 120.23 97.5974 120.205 97.4559C120.331 96.6406 119.765 95.8802 118.95 95.7598C118.811 95.7387 118.673 95.7387 118.521 95.7577H116.8V99.1857Z" fill="#242E3D"></path><path fill-rule="evenodd" clip-rule="evenodd" d="M125.395 105.273V93.9624H132.831V95.8549H127.845V98.5331H131.902V100.426H127.845V103.378H132.831V105.273H125.395Z" fill="#242E3D"></path></g></svg> 