<?xml version="1.0" encoding="UTF-8"?> <svg xmlns="http://www.w3.org/2000/svg" width="75" height="107" viewBox="0 0 75 107" fill="none"><circle cx="37.1136" cy="37.785" r="35.1136" fill="white" stroke="#242E3D" stroke-width="4" stroke-dasharray="6 4"></circle><path fill-rule="evenodd" clip-rule="evenodd" d="M10.0707 37.7851C10.0707 52.7205 22.1787 64.8274 37.1141 64.8274C52.0484 64.8274 64.1564 52.7205 64.1564 37.7851C64.1564 22.8496 52.0484 10.7427 37.1141 10.7427C22.1787 10.7427 10.0707 22.8496 10.0707 37.7851Z" fill="url(#paint0_linear_79_7372)"></path><path fill-rule="evenodd" clip-rule="evenodd" d="M44.5471 53.6872H29.68C27.9584 53.6872 26.5623 52.2922 26.5623 50.5705V35.7034C26.5623 33.9818 27.9584 32.5857 29.68 32.5857H44.5471C46.2687 32.5857 47.6638 33.9818 47.6638 35.7034V50.5705C47.6638 52.2922 46.2687 53.6872 44.5471 53.6872Z" stroke="#242E3D" stroke-width="4"></path><path fill-rule="evenodd" clip-rule="evenodd" d="M43.5964 32.5859H30.6303V26.6803C30.6303 23.1004 33.5324 20.1982 37.1123 20.1982H37.1144C40.6943 20.1982 43.5964 23.1004 43.5964 26.6803V32.5859Z" stroke="#242E3D" stroke-width="4"></path><path fill-rule="evenodd" clip-rule="evenodd" d="M39.8858 40.7075C39.8858 42.238 38.6445 43.4794 37.1139 43.4794C35.5822 43.4794 34.3409 42.238 34.3409 40.7075C34.3409 39.1769 35.5822 37.9355 37.1139 37.9355C38.6445 37.9355 39.8858 39.1769 39.8858 40.7075Z" fill="#242E3D"></path><path d="M37.1136 48.063V40.7079" stroke="#242E3D" stroke-width="4"></path><path fill-rule="evenodd" clip-rule="evenodd" d="M27.5151 86.6545H62.9574L69.0744 92.7715L63.1015 98.7444H56.0613L52.475 95.1581L48.7457 98.9696H40.8847L37.4115 95.5797L34.0376 98.9536H27.3987" fill="white"></path><path d="M27.5151 86.6545H62.9574L69.0744 92.7715L63.1015 98.7444H56.0613L52.475 95.1581L48.7457 98.9696H40.8847L37.4115 95.5797L34.0376 98.9536H27.3987" stroke="#242E3D" stroke-width="4"></path><path fill-rule="evenodd" clip-rule="evenodd" d="M28.6419 92.9274C28.6419 99.4137 23.3841 104.671 16.8978 104.671C10.4115 104.671 5.15271 99.4137 5.15271 92.9274C5.15271 86.4412 10.4115 81.1834 16.8978 81.1834C23.3841 81.1834 28.6419 86.4412 28.6419 92.9274Z" fill="white" stroke="#242E3D" stroke-width="4"></path><path fill-rule="evenodd" clip-rule="evenodd" d="M15.7806 92.9275C15.7806 94.4804 14.5222 95.7389 12.9692 95.7389C11.4162 95.7389 10.1568 94.4804 10.1568 92.9275C10.1568 91.3745 11.4162 90.1161 12.9692 90.1161C14.5222 90.1161 15.7806 91.3745 15.7806 92.9275Z" fill="#242E3D"></path><defs><linearGradient id="paint0_linear_79_7372" x1="9.19629" y1="65.1829" x2="63.9931" y2="65.1829" gradientUnits="userSpaceOnUse"><stop stop-color="#FFD614"></stop><stop offset="1" stop-color="#ED8704"></stop></linearGradient></defs></svg>