<?xml version="1.0" encoding="UTF-8"?> <svg xmlns="http://www.w3.org/2000/svg" width="106" height="106" viewBox="0 0 106 106" fill="none"><path fill-rule="evenodd" clip-rule="evenodd" d="M13.0065 24.3844C13.0065 60.9293 35.0116 88.3813 52.9761 95.8812C73.7105 85.3868 93.4308 55.3278 93.4308 24.3844C80.2059 21.1153 64.7532 14.8969 53.2186 3.67148C44.1686 13.663 25.3981 20.9002 13.0065 24.3844Z" fill="white" stroke="#242E3D" stroke-width="4"></path><path d="M97.2467 58.2014C101.615 49.7767 104 34.1576 104 22.1107" stroke="#242E3D" stroke-width="4" stroke-dasharray="4 4"></path><path d="M44.7604 103.671C34.8319 99.8865 1.02954 73.1739 1.02954 23.9509" stroke="#242E3D" stroke-width="4" stroke-dasharray="4 4"></path><mask id="mask0_79_7358" style="mask-type:alpha" maskUnits="userSpaceOnUse" x="31" y="26" width="45" height="46"><path fill-rule="evenodd" clip-rule="evenodd" d="M31.0298 48.9776C31.0298 61.2313 40.9631 71.167 53.2192 71.167C65.4741 71.167 75.4086 61.2313 75.4086 48.9776C75.4086 36.7215 65.4741 26.787 53.2192 26.787C40.9631 26.787 31.0298 36.7215 31.0298 48.9776Z" fill="white"></path></mask><g mask="url(#mask0_79_7358)"><path fill-rule="evenodd" clip-rule="evenodd" d="M31.0298 48.9776C31.0298 61.2313 40.9631 71.167 53.2192 71.167C65.4741 71.167 75.4086 61.2313 75.4086 48.9776C75.4086 36.7215 65.4741 26.787 53.2192 26.787C40.9631 26.787 31.0298 36.7215 31.0298 48.9776Z" fill="url(#paint0_linear_79_7358)"></path></g><path d="M39.8838 51.4952L46.5896 58.201L64.6278 40.1627" stroke="#242E3D" stroke-width="4"></path><defs><linearGradient id="paint0_linear_79_7358" x1="31.029" y1="71.1676" x2="75.4087" y2="71.1676" gradientUnits="userSpaceOnUse"><stop stop-color="#FFD414"></stop><stop offset="1" stop-color="#EB8504"></stop></linearGradient></defs></svg>