<svg width="239" height="55" viewBox="0 0 239 55" fill="none" xmlns="http://www.w3.org/2000/svg">
<path d="M38.3763 27.8014C38.2983 29.9986 37.3714 32.0798 35.7906 33.6069C34.2099 35.1341 32.0987 35.9881 29.9013 35.9892C27.9495 35.9877 26.0578 35.3127 24.5455 34.078C23.0332 32.8433 21.9928 31.1246 21.5997 29.2117C21.2066 27.2988 21.4849 25.3087 22.3876 23.5772C23.2904 21.8457 24.7624 20.4787 26.5553 19.7068C27.6116 19.2496 28.7505 19.0143 29.9013 19.0157V9.78052C26.4143 9.78252 23.0056 10.8148 20.1028 12.748C17.2 14.6811 14.9324 17.4289 13.5846 20.6466C12.2368 23.8644 11.8688 27.4087 12.5267 30.835C13.1847 34.2612 14.8393 37.4167 17.2829 39.9056C19.7266 42.3944 22.8504 44.1058 26.2625 44.8249C29.6747 45.5441 33.2231 45.239 36.4625 43.9479C39.702 42.6568 42.4882 40.4372 44.4716 37.5677C46.455 34.6981 47.5472 31.3064 47.6112 27.8181V27.5001H38.3834C38.3834 27.5862 38.381 27.6723 38.3763 27.8014Z" fill="white"></path>
<path d="M80.3039 31.8043C80.3155 31.6774 80.3524 31.554 80.4123 31.4415C80.4722 31.3289 80.554 31.2295 80.6529 31.1491C80.8275 31.0079 81.045 30.9303 81.2695 30.9291H83.9654C84.2058 30.9276 84.4376 31.0183 84.6131 31.1826C84.7053 31.263 84.7763 31.3647 84.8201 31.4789C84.8638 31.5932 84.8789 31.7164 84.8641 31.8378C84.7898 32.7898 84.5589 33.7231 84.1805 34.5998C83.7724 35.5484 83.1651 36.3982 82.4 37.0915C81.5148 37.8843 80.4872 38.5019 79.3718 38.9113C78.1498 39.3895 76.6743 39.6247 74.9456 39.6167C73.5602 39.6426 72.1821 39.409 70.8826 38.928C69.7638 38.5153 68.7461 37.868 67.8978 37.0295C67.0495 36.191 66.3901 35.1808 65.9639 34.0665C65.4962 32.8717 65.2211 31.6101 65.149 30.3289C65.1043 29.476 65.082 28.533 65.082 27.5C65.082 26.4669 65.1043 25.524 65.149 24.6711C65.2211 23.3899 65.4962 22.1283 65.9639 20.9335C66.3893 19.8192 67.0478 18.8088 67.8953 17.9699C68.7427 17.1311 69.7596 16.4831 70.8778 16.0695C72.1769 15.5866 73.5551 15.3522 74.9408 15.3785C76.6711 15.3785 78.1466 15.6176 79.3671 16.0958C80.4827 16.5035 81.5105 17.1204 82.3952 17.9132C83.163 18.6107 83.7705 19.4666 84.1757 20.4217C84.5502 21.2939 84.781 22.2209 84.8593 23.1669C84.8723 23.287 84.856 23.4085 84.8119 23.5209C84.7678 23.6333 84.6971 23.7334 84.6059 23.8126C84.4304 23.9769 84.1986 24.0676 83.9583 24.0661H81.2599C81.0306 24.0631 80.8084 23.986 80.6266 23.8461C80.5256 23.7675 80.4415 23.6694 80.3791 23.5577C80.3167 23.446 80.2773 23.3228 80.2633 23.1956C80.1917 22.7326 80.0336 22.2873 79.7973 21.8828C79.54 21.441 79.201 21.0522 78.7982 20.7374C78.3181 20.3676 77.7758 20.0866 77.1969 19.9076C76.4642 19.6814 75.7003 19.5732 74.9336 19.5872C74.1598 19.5699 73.3903 19.7073 72.6703 19.9913C72.0633 20.2356 71.5132 20.6028 71.0546 21.0698C70.6133 21.5331 70.2738 22.0837 70.058 22.6863C69.8216 23.3235 69.6815 23.9925 69.6422 24.6711C69.5959 25.524 69.5736 26.4669 69.5752 27.5C69.5768 28.533 69.5991 29.476 69.6422 30.3289C69.6783 31.0141 69.8185 31.6898 70.058 32.3328C70.2763 32.9285 70.6156 33.4724 71.0546 33.9302C71.5132 34.3972 72.0633 34.7643 72.6703 35.0087C73.3903 35.2927 74.1598 35.4301 74.9336 35.4128C75.7003 35.4278 76.4645 35.3196 77.1969 35.0924C77.7778 34.9116 78.3235 34.6326 78.8102 34.2674C79.2203 33.9565 79.5654 33.5682 79.8259 33.1243C80.0667 32.7182 80.2288 32.2704 80.3039 31.8043Z" fill="white"></path>
<path d="M104.228 35.0757C104.346 35.0748 104.463 35.0984 104.572 35.1449C104.68 35.1914 104.778 35.2598 104.859 35.3459C104.945 35.4283 105.013 35.5275 105.059 35.6373C105.105 35.7472 105.128 35.8653 105.127 35.9843V38.3757C105.128 38.4951 105.105 38.6136 105.059 38.7239C105.013 38.8341 104.945 38.9337 104.859 39.0165C104.778 39.1023 104.68 39.1703 104.571 39.2164C104.463 39.2625 104.346 39.2856 104.228 39.2843H89.649C89.5307 39.2854 89.4135 39.2622 89.3045 39.2161C89.1956 39.17 89.0973 39.1021 89.0156 39.0165C88.9303 38.9333 88.8628 38.8335 88.8172 38.7233C88.7716 38.6132 88.7488 38.4949 88.7503 38.3757V16.6148C88.7492 16.4956 88.7722 16.3774 88.8178 16.2673C88.8633 16.1572 88.9306 16.0574 89.0156 15.9739C89.0973 15.8883 89.1956 15.8204 89.3045 15.7743C89.4135 15.7283 89.5307 15.705 89.649 15.7061H92.3449C92.4626 15.7073 92.5789 15.7325 92.6866 15.7802C92.7942 15.8279 92.891 15.897 92.9711 15.9835C93.056 16.067 93.1233 16.1668 93.1689 16.2769C93.2145 16.387 93.2374 16.5052 93.2363 16.6243V35.0757H104.228Z" fill="white"></path>
<path d="M107.156 24.5037C107.214 23.2897 107.455 22.0916 107.873 20.9502C108.266 19.8677 108.885 18.8809 109.687 18.0543C110.538 17.202 111.558 16.5373 112.681 16.103C115.429 15.1417 118.421 15.1358 121.173 16.0863C122.302 16.511 123.325 17.1769 124.17 18.0376C124.969 18.87 125.591 19.8549 126.001 20.9335C126.431 22.0777 126.677 23.2826 126.732 24.5037C126.753 24.9293 126.77 25.4004 126.782 25.917C126.795 26.4335 126.801 26.9667 126.799 27.5167C126.799 28.0667 126.793 28.6 126.782 29.1165C126.771 29.633 126.754 30.1041 126.732 30.5298C126.673 31.7436 126.431 32.9415 126.015 34.0833C125.622 35.166 125.004 36.153 124.201 36.9791C123.347 37.8338 122.319 38.4944 121.187 38.9161C118.431 39.8566 115.44 39.8566 112.684 38.9161C111.559 38.4913 110.538 37.8309 109.689 36.9791C108.887 36.153 108.268 35.166 107.875 34.0833C107.458 32.9418 107.216 31.7437 107.158 30.5298C107.136 30.1041 107.12 29.633 107.11 29.1165C107.101 28.6 107.095 28.0667 107.094 27.5167C107.094 26.9667 107.099 26.4335 107.11 25.917C107.121 25.4004 107.137 24.9293 107.156 24.5037ZM122.234 24.6711C122.147 23.0498 121.633 21.7983 120.695 20.9167C119.757 20.0351 118.506 19.592 116.943 19.5872C115.389 19.5872 114.141 20.0304 113.198 20.9167C112.254 21.8031 111.738 23.0546 111.649 24.6711C111.606 25.524 111.584 26.4725 111.584 27.5167C111.584 28.5609 111.606 29.5095 111.649 30.3624C111.738 31.9789 112.254 33.2248 113.198 34.1C114.141 34.9752 115.389 35.4128 116.943 35.4128C118.496 35.4128 119.745 34.9752 120.688 34.1C121.631 33.2248 122.147 31.9813 122.234 30.3696C122.28 29.5167 122.303 28.5681 122.301 27.5239C122.299 26.4797 122.277 25.5288 122.234 24.6711Z" fill="white"></path>
<path d="M149.136 15.7157C149.254 15.714 149.372 15.737 149.481 15.7831C149.59 15.8292 149.688 15.8974 149.769 15.9835C149.854 16.067 149.922 16.1668 149.967 16.2769C150.013 16.387 150.036 16.5052 150.035 16.6244V30.4294C150.053 31.7113 149.851 32.9869 149.437 34.2004C149.06 35.2872 148.446 36.2764 147.64 37.0963C146.791 37.9412 145.764 38.5844 144.633 38.9783C141.923 39.8519 139.007 39.8519 136.297 38.9783C135.178 38.5835 134.161 37.9448 133.319 37.1083C132.511 36.2864 131.901 35.29 131.538 34.1957C131.134 32.9802 130.937 31.7054 130.955 30.4246V16.6244C130.953 16.5059 130.974 16.3881 131.018 16.278C131.062 16.1679 131.128 16.0678 131.211 15.9835C131.292 15.8977 131.391 15.8296 131.5 15.7835C131.609 15.7374 131.726 15.7143 131.844 15.7157H134.557C134.675 15.7144 134.792 15.7375 134.9 15.7836C135.009 15.8297 135.107 15.8977 135.188 15.9835C135.274 16.0665 135.342 16.1662 135.388 16.2764C135.434 16.3866 135.457 16.5049 135.456 16.6244V30.2548C135.436 31.0555 135.56 31.8531 135.821 32.6102C136.035 33.2172 136.389 33.7652 136.854 34.21C137.308 34.6332 137.855 34.9444 138.45 35.1187C139.109 35.3155 139.794 35.4122 140.482 35.4057C141.174 35.4111 141.863 35.3144 142.528 35.1187C143.129 34.9472 143.682 34.6359 144.141 34.21C144.607 33.7631 144.966 33.2161 145.19 32.6102C145.463 31.8558 145.593 31.0569 145.572 30.2548V16.6244C145.571 16.5049 145.594 16.3866 145.64 16.2764C145.686 16.1662 145.754 16.0665 145.84 15.9835C145.921 15.8977 146.019 15.8297 146.128 15.7836C146.236 15.7375 146.353 15.7144 146.471 15.7157H149.136Z" fill="white"></path>
<path d="M164.171 15.7157C165.625 15.6853 167.072 15.907 168.45 16.3709C169.574 16.7497 170.598 17.3782 171.446 18.2094C172.293 19.0405 172.941 20.0528 173.342 21.1702C173.791 22.3995 174.055 23.6891 174.123 24.9963C174.212 26.6563 174.212 28.3198 174.123 29.9798C174.055 31.287 173.791 32.5766 173.342 33.8059C172.94 34.902 172.31 35.9004 171.494 36.7352C170.652 37.5712 169.635 38.2099 168.516 38.6052C167.173 39.0676 165.759 39.2894 164.339 39.2604H155.95C155.832 39.2617 155.715 39.2386 155.606 39.1925C155.498 39.1464 155.4 39.0784 155.319 38.9926C155.233 38.9098 155.165 38.8102 155.119 38.7C155.073 38.5897 155.05 38.4712 155.051 38.3517V16.5909C155.05 16.4715 155.073 16.3531 155.119 16.2429C155.165 16.1327 155.233 16.0331 155.319 15.95C155.4 15.8643 155.498 15.7962 155.606 15.7501C155.715 15.704 155.832 15.6809 155.95 15.6822L164.171 15.7157ZM169.63 25.0083C169.591 24.3233 169.45 23.6479 169.212 23.0044C168.985 22.399 168.633 21.8483 168.179 21.3878C167.693 20.9085 167.109 20.5412 166.466 20.3117C165.674 20.0364 164.84 19.9052 164.002 19.9244H159.544V35.0757H164.171C164.976 35.0934 165.778 34.9621 166.535 34.6883C167.162 34.4584 167.732 34.0972 168.208 33.6289C168.659 33.1691 169.005 32.6178 169.224 32.0124C169.46 31.3627 169.6 30.682 169.64 29.9917C169.725 28.3316 169.722 26.6681 169.63 25.0083Z" fill="white"></path>
<path d="M193.59 15.7157C193.708 15.7147 193.825 15.7379 193.934 15.784C194.043 15.83 194.142 15.898 194.223 15.9835C194.308 16.0671 194.376 16.1669 194.421 16.277C194.467 16.3871 194.49 16.5052 194.489 16.6244V19.0157C194.49 19.1346 194.467 19.2524 194.421 19.3622C194.376 19.472 194.308 19.5713 194.223 19.6542C194.142 19.7401 194.043 19.8084 193.935 19.8549C193.826 19.9013 193.708 19.925 193.59 19.9244H182.978V26.4575H192.93C193.048 26.4562 193.165 26.4793 193.274 26.5254C193.382 26.5715 193.48 26.6395 193.561 26.7253C193.647 26.8087 193.714 26.9084 193.76 27.0185C193.806 27.1286 193.83 27.2468 193.829 27.3662V29.7575C193.83 29.8768 193.807 29.9952 193.761 30.1054C193.715 30.2155 193.647 30.3152 193.561 30.3983C193.48 30.4844 193.383 30.5528 193.274 30.5993C193.165 30.6458 193.048 30.6694 192.93 30.6685H182.978V38.3781C182.979 38.4975 182.956 38.6159 182.91 38.726C182.864 38.8362 182.796 38.9358 182.711 39.019C182.63 39.1047 182.532 39.1728 182.423 39.2189C182.315 39.265 182.198 39.2881 182.08 39.2868H179.381C179.263 39.2881 179.147 39.265 179.038 39.2189C178.929 39.1728 178.831 39.1047 178.75 39.019C178.664 38.9362 178.596 38.8366 178.55 38.7263C178.504 38.6161 178.481 38.4976 178.483 38.3781V16.6172C178.482 16.4978 178.505 16.3794 178.551 16.2693C178.597 16.1591 178.665 16.0594 178.75 15.9764C178.831 15.8906 178.929 15.8226 179.038 15.7765C179.147 15.7304 179.263 15.7073 179.381 15.7085L193.59 15.7157Z" fill="white"></path>
<path d="M199.252 39.2843C199.134 39.2853 199.017 39.2621 198.908 39.2161C198.799 39.17 198.7 39.1021 198.619 39.0165C198.533 38.9332 198.466 38.8335 198.42 38.7233C198.375 38.6131 198.352 38.4948 198.353 38.3756V16.6147C198.352 16.4978 198.374 16.3819 198.418 16.2736C198.462 16.1652 198.527 16.0666 198.609 15.9834C198.691 15.8979 198.789 15.8299 198.898 15.7839C199.007 15.7378 199.124 15.7146 199.242 15.7156H201.955C202.073 15.7146 202.191 15.7378 202.299 15.7839C202.408 15.8299 202.507 15.8979 202.588 15.9834C202.673 16.067 202.741 16.1667 202.786 16.2769C202.832 16.387 202.855 16.5051 202.854 16.6243V38.3852C202.855 38.5044 202.832 38.6227 202.787 38.7329C202.741 38.843 202.674 38.9428 202.588 39.026C202.507 39.1116 202.408 39.1795 202.299 39.2256C202.191 39.2717 202.073 39.2949 201.955 39.2939L199.252 39.2843Z" fill="white"></path>
<path d="M223.116 39.2844C222.942 39.2995 222.767 39.2774 222.602 39.2197C222.437 39.162 222.287 39.0699 222.16 38.9496C221.962 38.7248 221.816 38.555 221.727 38.4426L216.436 31.0009L211.178 38.4426C211.087 38.555 210.939 38.7248 210.745 38.9496C210.619 39.0698 210.468 39.1618 210.303 39.2195C210.139 39.2772 209.963 39.2993 209.789 39.2844H206.974C206.856 39.2857 206.738 39.2626 206.629 39.2165C206.52 39.1704 206.422 39.1024 206.341 39.0166C206.255 38.9333 206.188 38.8336 206.142 38.7234C206.097 38.6132 206.074 38.4949 206.075 38.3757C206.08 38.2461 206.114 38.1193 206.176 38.005L213.797 27.2609L206.508 16.9903C206.447 16.876 206.412 16.7492 206.408 16.6196C206.407 16.5004 206.429 16.3823 206.475 16.2722C206.521 16.162 206.588 16.0623 206.673 15.9787C206.755 15.8932 206.853 15.8252 206.962 15.7792C207.071 15.7331 207.188 15.7099 207.306 15.7109H210.103C210.276 15.6963 210.452 15.7185 210.616 15.7762C210.781 15.8339 210.932 15.9257 211.059 16.0457C211.257 16.2705 211.403 16.4403 211.491 16.5526L216.534 23.674L221.527 16.5694C221.615 16.457 221.766 16.2872 221.959 16.0624C222.086 15.9423 222.237 15.8504 222.402 15.7927C222.566 15.735 222.741 15.7129 222.915 15.7276H225.712C225.83 15.7263 225.947 15.7494 226.056 15.7955C226.165 15.8416 226.263 15.9097 226.345 15.9955C226.43 16.079 226.497 16.1788 226.543 16.2889C226.588 16.399 226.611 16.5172 226.61 16.6363C226.605 16.7656 226.572 16.8922 226.512 17.007L219.163 27.3996L226.718 38.005C226.779 38.1193 226.813 38.2461 226.818 38.3757C226.82 38.4949 226.797 38.6132 226.751 38.7234C226.706 38.8336 226.638 38.9333 226.553 39.0166C226.471 39.1021 226.373 39.1701 226.264 39.2161C226.155 39.2622 226.038 39.2854 225.92 39.2844H223.116Z" fill="white"></path>
<path d="M47.6064 9.77563H32.2458V19.0109H38.3762V25.1517H47.6064V9.77563Z" fill="white"></path>
</svg>