<svg width="298" height="178" viewBox="0 0 298 178" fill="none" xmlns="http://www.w3.org/2000/svg">
<path d="M84.2632 64.5264C84.2632 68.1777 84.658 71.1382 85.3488 73.3093C86.1382 75.4803 87.1251 77.8487 88.5067 80.4145C89.0001 81.204 89.1974 81.9935 89.1974 82.6843C89.1974 83.6711 88.6053 84.6579 87.3224 85.6448L81.1053 89.7895C80.2172 90.3816 79.329 90.6777 78.5395 90.6777C77.5527 90.6777 76.5659 90.1842 75.579 89.2961C74.1974 87.8158 73.0132 86.2369 72.0264 84.6579C71.0395 82.9803 70.0527 81.1053 68.9672 78.8356C61.2698 87.9145 51.5988 92.454 39.954 92.454C31.6645 92.454 25.0527 90.0856 20.2172 85.3487C15.3817 80.6119 12.9146 74.2961 12.9146 66.4014C12.9146 58.0132 15.8751 51.204 21.8948 46.0724C27.9145 40.9408 35.908 38.375 46.0724 38.375C49.4277 38.375 52.8816 38.6711 56.533 39.1645C60.1843 39.6579 63.9343 40.4474 67.8817 41.3356V34.1316C67.8817 26.6316 66.3027 21.4014 63.2435 18.3421C60.0856 15.2829 54.7566 13.8027 47.158 13.8027C43.704 13.8027 40.1514 14.1974 36.5001 15.0856C32.8488 15.9737 29.2961 17.0593 25.8422 18.4408C24.2632 19.1316 23.079 19.5264 22.3882 19.7237C21.6974 19.9211 21.204 20.0198 20.8093 20.0198C19.4277 20.0198 18.7369 19.0329 18.7369 16.9606V12.125C18.7369 10.5461 18.9343 9.36189 19.4277 8.6711C19.9211 7.98031 20.8093 7.28952 22.1909 6.59873C25.6448 4.82241 29.7895 3.34215 34.6251 2.15794C39.4606 0.875045 44.5922 0.28294 50.0198 0.28294C61.7632 0.28294 70.3488 2.94741 75.8751 8.27636C81.3027 13.6053 84.0659 21.6974 84.0659 32.5527V64.5264H84.2632ZM44.1974 79.5264C47.454 79.5264 50.8093 78.9343 54.3619 77.75C57.9145 76.5658 61.0724 74.3948 63.7369 71.4342C65.3159 69.5592 66.5001 67.4869 67.0922 65.1185C67.6843 62.75 68.079 59.8882 68.079 56.5329V52.3882C65.2172 51.6974 62.158 51.1053 59.0001 50.7106C55.8422 50.3158 52.783 50.1185 49.7238 50.1185C43.1119 50.1185 38.2764 51.4014 35.0198 54.0658C31.7632 56.7303 30.1843 60.4803 30.1843 65.4145C30.1843 70.0527 31.3685 73.5066 33.8356 75.875C36.204 78.3421 39.658 79.5264 44.1974 79.5264ZM123.441 90.1842C121.665 90.1842 120.48 89.8882 119.691 89.1974C118.901 88.6053 118.211 87.2237 117.618 85.3487L94.4277 9.06583C93.8356 7.09215 93.5396 5.80926 93.5396 5.11847C93.5396 3.53952 94.329 2.65136 95.908 2.65136H105.579C107.454 2.65136 108.737 2.94741 109.428 3.6382C110.217 4.23031 110.809 5.61189 111.401 7.48689L127.98 72.8158L143.375 7.48689C143.868 5.5132 144.461 4.23031 145.25 3.6382C146.04 3.0461 147.421 2.65136 149.197 2.65136H157.092C158.967 2.65136 160.25 2.94741 161.04 3.6382C161.829 4.23031 162.52 5.61189 162.915 7.48689L178.507 73.6053L195.579 7.48689C196.171 5.5132 196.862 4.23031 197.553 3.6382C198.342 3.0461 199.625 2.65136 201.401 2.65136H210.579C212.158 2.65136 213.046 3.44083 213.046 5.11847C213.046 5.61189 212.947 6.10531 212.849 6.69741C212.75 7.28952 212.553 8.07899 212.158 9.16452L188.375 85.4474C187.783 87.4211 187.092 88.704 186.303 89.2961C185.513 89.8882 184.23 90.2829 182.553 90.2829H174.066C172.191 90.2829 170.908 89.9869 170.118 89.2961C169.329 88.6053 168.638 87.3224 168.243 85.3487L152.947 21.6974L137.75 85.25C137.257 87.2237 136.665 88.5066 135.875 89.1974C135.086 89.8882 133.704 90.1842 131.928 90.1842H123.441ZM250.25 92.8487C245.118 92.8487 239.987 92.2566 235.053 91.0724C230.118 89.8882 226.27 88.6053 223.704 87.125C222.125 86.2369 221.04 85.25 220.645 84.3619C220.25 83.4737 220.053 82.4869 220.053 81.5987V76.5658C220.053 74.4935 220.842 73.5066 222.322 73.5066C222.915 73.5066 223.507 73.6053 224.099 73.8027C224.691 74 225.579 74.3948 226.566 74.7895C229.921 76.2698 233.572 77.454 237.421 78.2435C241.368 79.0329 245.217 79.4277 249.165 79.4277C255.382 79.4277 260.217 78.3421 263.572 76.1711C266.928 74 268.704 70.8421 268.704 66.7961C268.704 64.0329 267.816 61.7632 266.04 59.8882C264.263 58.0132 260.908 56.3356 256.072 54.7566L241.763 50.3158C234.559 48.0461 229.23 44.6908 225.974 40.25C222.717 35.9079 221.04 31.0724 221.04 25.9408C221.04 21.7961 221.928 18.1448 223.704 14.9869C225.48 11.829 227.849 9.06583 230.809 6.89478C233.77 4.62504 237.125 2.94741 241.072 1.7632C245.02 0.578992 249.165 0.0855713 253.507 0.0855713C255.678 0.0855713 257.947 0.184255 260.118 0.480308C262.388 0.776361 264.461 1.1711 266.533 1.56583C268.507 2.05926 270.382 2.55268 272.158 3.14478C273.934 3.73689 275.316 4.32899 276.303 4.9211C277.684 5.71057 278.671 6.50004 279.263 7.3882C279.855 8.17768 280.151 9.2632 280.151 10.6448V15.2829C280.151 17.3553 279.362 18.4408 277.882 18.4408C277.092 18.4408 275.809 18.0461 274.132 17.2566C268.507 14.6908 262.191 13.4079 255.184 13.4079C249.559 13.4079 245.118 14.2961 242.059 16.1711C239 18.0461 237.421 20.9079 237.421 24.954C237.421 27.7171 238.408 30.0856 240.382 31.9606C242.355 33.8356 246.007 35.7106 251.237 37.3882L265.25 41.829C272.355 44.0987 277.487 47.2566 280.546 51.3027C283.605 55.3487 285.086 59.9869 285.086 65.1185C285.086 69.3619 284.197 73.2106 282.52 76.5658C280.743 79.9211 278.375 82.8816 275.316 85.25C272.257 87.7171 268.605 89.4935 264.362 90.7764C259.921 92.1579 255.283 92.8487 250.25 92.8487Z" fill="white"></path>
<path fill-rule="evenodd" clip-rule="evenodd" d="M268.901 140.809C236.434 164.79 189.263 177.52 148.704 177.52C91.8618 177.52 40.6447 156.5 1.96049 121.566C-1.09872 118.803 1.66443 115.053 5.31575 117.224C47.1579 141.5 98.7697 156.204 152.158 156.204C188.178 156.204 227.75 148.704 264.164 133.309C269.592 130.842 274.23 136.862 268.901 140.809Z" fill="#FF9900"></path>
<path fill-rule="evenodd" clip-rule="evenodd" d="M282.421 125.414C278.276 120.086 254.987 122.849 244.428 124.132C241.27 124.526 240.776 121.763 243.638 119.691C262.191 106.664 292.684 110.414 296.237 114.757C299.79 119.197 295.25 149.691 277.882 164.296C275.217 166.566 272.651 165.382 273.836 162.421C277.783 152.651 286.566 130.645 282.421 125.414Z" fill="#FF9900"></path>
</svg>