<svg width="174" height="40" viewBox="0 0 174 40" fill="none" xmlns="http://www.w3.org/2000/svg">
<path d="M27.9252 20.2191C27.8685 21.8171 27.194 23.3307 26.0437 24.4413C24.8935 25.552 23.3572 26.1731 21.7583 26.1739C20.338 26.1728 18.9615 25.6819 17.861 24.7839C16.7606 23.886 16.0034 22.636 15.7174 21.2448C15.4314 19.8536 15.6339 18.4063 16.2908 17.147C16.9477 15.8877 18.0188 14.8936 19.3235 14.3322C20.0921 13.9996 20.9208 13.8285 21.7583 13.8296V7.11304C19.2209 7.11449 16.7404 7.86527 14.6282 9.27118C12.5159 10.6771 10.8659 12.6755 9.88509 15.0157C8.90434 17.3558 8.63654 19.9336 9.1153 22.4254C9.59407 24.9172 10.7981 27.2121 12.5762 29.0222C14.3544 30.8322 16.6275 32.0769 19.1104 32.5999C21.5933 33.1229 24.1754 32.901 26.5326 31.962C28.8899 31.023 30.9173 29.4088 32.3606 27.3219C33.8039 25.2349 34.5986 22.7683 34.6452 20.2313V20H27.9304C27.9304 20.0626 27.9287 20.1252 27.9252 20.2191Z" fill="url(#paint0_linear_416_10328)"></path>
<path d="M58.4348 23.1304C58.4432 23.0381 58.47 22.9483 58.5136 22.8665C58.5572 22.7847 58.6168 22.7124 58.6887 22.6539C58.8158 22.5512 58.974 22.4948 59.1374 22.4939H61.0991C61.2741 22.4928 61.4427 22.5587 61.5705 22.6782C61.6375 22.7367 61.6892 22.8107 61.7211 22.8938C61.7529 22.9768 61.7639 23.0664 61.7531 23.1547C61.699 23.8471 61.531 24.5258 61.2557 25.1634C60.9587 25.8534 60.5168 26.4714 59.96 26.9756C59.3159 27.5522 58.5682 28.0013 57.7565 28.2991C56.8673 28.6469 55.7936 28.8179 54.5357 28.8121C53.5276 28.8309 52.5248 28.6611 51.5791 28.3113C50.765 28.0111 50.0245 27.5403 49.4072 26.9305C48.7899 26.3207 48.3101 25.586 48 24.7756C47.6596 23.9066 47.4595 22.9891 47.407 22.0574C47.3745 21.4371 47.3583 20.7513 47.3583 20C47.3583 19.2487 47.3745 18.5629 47.407 17.9426C47.4595 17.0108 47.6596 16.0933 48 15.2243C48.3095 14.4139 48.7887 13.6791 49.4054 13.069C50.0221 12.4589 50.762 11.9877 51.5757 11.6869C52.521 11.3357 53.5239 11.1652 54.5322 11.1843C55.7913 11.1843 56.8649 11.3582 57.7531 11.706C58.5649 12.0026 59.3127 12.4511 59.9565 13.0278C60.5153 13.535 60.9573 14.1575 61.2522 14.8521C61.5247 15.4864 61.6926 16.1607 61.7496 16.8487C61.759 16.936 61.7472 17.0243 61.7151 17.1061C61.683 17.1879 61.6316 17.2606 61.5652 17.3182C61.4375 17.4377 61.2688 17.5037 61.0939 17.5026H59.1305C58.9636 17.5004 58.8019 17.4443 58.6696 17.3426C58.5961 17.2854 58.5349 17.2141 58.4895 17.1328C58.444 17.0516 58.4154 16.962 58.4052 16.8695C58.3531 16.5328 58.2381 16.2089 58.0661 15.9147C57.8789 15.5934 57.6322 15.3107 57.3391 15.0817C56.9898 14.8128 56.5952 14.6084 56.1739 14.4782C55.6408 14.3137 55.0848 14.2351 54.527 14.2452C53.9639 14.2326 53.404 14.3325 52.88 14.5391C52.4383 14.7168 52.0381 14.9838 51.7044 15.3234C51.3832 15.6604 51.1362 16.0609 50.9791 16.4991C50.8071 16.9625 50.7051 17.449 50.6765 17.9426C50.6429 18.5629 50.6267 19.2487 50.6278 20C50.629 20.7513 50.6452 21.4371 50.6765 22.0574C50.7028 22.5557 50.8049 23.0471 50.9791 23.5147C51.138 23.948 51.3849 24.3435 51.7044 24.6765C52.0381 25.0161 52.4383 25.2831 52.88 25.4608C53.404 25.6674 53.9639 25.7673 54.527 25.7547C55.0849 25.7656 55.6409 25.687 56.1739 25.5217C56.5966 25.3902 56.9937 25.1873 57.3478 24.9217C57.6462 24.6956 57.8974 24.4132 58.087 24.0904C58.2621 23.7951 58.3801 23.4694 58.4348 23.1304Z" fill="#037ADE"></path>
<path d="M75.8435 25.5096C75.9294 25.509 76.0145 25.5261 76.0935 25.5599C76.1725 25.5938 76.2437 25.6435 76.3026 25.7061C76.3651 25.7661 76.4146 25.8382 76.4481 25.9181C76.4817 25.998 76.4984 26.0838 76.4974 26.1705V27.9096C76.4985 27.9965 76.4819 28.0827 76.4484 28.1628C76.4148 28.243 76.3652 28.3155 76.3026 28.3757C76.2436 28.438 76.1724 28.4875 76.0934 28.521C76.0144 28.5546 75.9293 28.5714 75.8435 28.5705H65.2348C65.1487 28.5712 65.0634 28.5543 64.9842 28.5208C64.9049 28.4873 64.8333 28.4379 64.7739 28.3757C64.7118 28.3151 64.6627 28.2426 64.6295 28.1625C64.5963 28.0823 64.5798 27.9963 64.5809 27.9096V12.0835C64.5801 11.9968 64.5968 11.9109 64.6299 11.8308C64.6631 11.7507 64.7121 11.6782 64.7739 11.6174C64.8333 11.5552 64.9049 11.5058 64.9842 11.4723C65.0634 11.4388 65.1487 11.4219 65.2348 11.4226H67.1965C67.2822 11.4235 67.3668 11.4418 67.4451 11.4765C67.5235 11.5112 67.5939 11.5615 67.6522 11.6244C67.714 11.6851 67.763 11.7577 67.7961 11.8378C67.8293 11.9178 67.846 12.0038 67.8452 12.0905V25.5096H75.8435Z" fill="#037ADE"></path>
<path d="M77.9739 17.8208C78.0162 16.9379 78.1921 16.0666 78.4957 15.2365C78.7822 14.4492 79.2321 13.7315 79.8157 13.1304C80.4351 12.5105 81.1774 12.0271 81.9948 11.7112C83.9945 11.0121 86.1715 11.0078 88.1739 11.6991C88.9954 12.008 89.7396 12.4923 90.3548 13.1182C90.9359 13.7236 91.389 14.4399 91.687 15.2243C91.9997 16.0565 92.1793 16.9327 92.2191 17.8208C92.2342 18.1304 92.2464 18.473 92.2557 18.8486C92.2649 19.2243 92.269 19.6121 92.2678 20.0121C92.2678 20.4121 92.2638 20.7999 92.2557 21.1756C92.2475 21.5512 92.2354 21.8939 92.2191 22.2034C92.176 23.0862 92.0001 23.9574 91.6974 24.7878C91.4113 25.5752 90.9614 26.293 90.3774 26.8939C89.756 27.5154 89.008 27.9959 88.1844 28.3026C86.1785 28.9866 84.0024 28.9866 81.9965 28.3026C81.1781 27.9936 80.4351 27.5133 79.8174 26.8939C79.2335 26.293 78.7836 25.5752 78.4974 24.7878C78.1939 23.9576 78.0179 23.0863 77.9757 22.2034C77.9594 21.8939 77.9478 21.5512 77.9409 21.1756C77.9339 20.7999 77.9299 20.4121 77.9287 20.0121C77.9287 19.6121 77.9328 19.2243 77.9409 18.8486C77.949 18.473 77.96 18.1304 77.9739 17.8208ZM88.9461 17.9426C88.8823 16.7634 88.509 15.8533 87.8261 15.2121C87.1432 14.571 86.2331 14.2486 85.0957 14.2452C83.9652 14.2452 83.0568 14.5675 82.3705 15.2121C81.6841 15.8568 81.3084 16.7669 81.2435 17.9426C81.2122 18.5628 81.1965 19.2527 81.1965 20.0121C81.1965 20.7715 81.2122 21.4614 81.2435 22.0817C81.3084 23.2573 81.6841 24.1634 82.3705 24.7999C83.0568 25.4365 83.9652 25.7547 85.0957 25.7547C86.2261 25.7547 87.1345 25.4365 87.8209 24.7999C88.5073 24.1634 88.8823 23.2591 88.9461 22.0869C88.9797 21.4666 88.996 20.7768 88.9948 20.0173C88.9936 19.2579 88.9774 18.5663 88.9461 17.9426Z" fill="#037ADE"></path>
<path d="M108.522 11.4296C108.608 11.4285 108.693 11.4452 108.773 11.4787C108.852 11.5122 108.923 11.5618 108.983 11.6244C109.044 11.6851 109.093 11.7577 109.127 11.8378C109.16 11.9179 109.176 12.0038 109.176 12.0905V22.1305C109.189 23.0629 109.042 23.9906 108.741 24.8731C108.467 25.6635 108.02 26.3829 107.433 26.9792C106.816 27.5937 106.068 28.0614 105.245 28.3479C103.273 28.9833 101.151 28.9833 99.1791 28.3479C98.3649 28.0608 97.6247 27.5963 97.0122 26.9879C96.4239 26.3902 95.9807 25.6655 95.7165 24.8696C95.4226 23.9856 95.2791 23.0585 95.2922 22.127V12.0905C95.2905 12.0043 95.3061 11.9187 95.338 11.8386C95.37 11.7586 95.4177 11.6857 95.4783 11.6244C95.5376 11.562 95.6091 11.5125 95.6884 11.479C95.7677 11.4455 95.853 11.4287 95.9391 11.4296H97.913C97.9989 11.4287 98.084 11.4455 98.163 11.479C98.242 11.5126 98.3132 11.562 98.3722 11.6244C98.4346 11.6848 98.484 11.7573 98.5175 11.8374C98.551 11.9175 98.5678 12.0037 98.567 12.0905V22.0035C98.5529 22.5858 98.643 23.166 98.833 23.7166C98.9887 24.158 99.2461 24.5566 99.5843 24.8801C99.9148 25.1878 100.313 25.4141 100.746 25.5409C101.226 25.684 101.724 25.7544 102.224 25.7496C102.728 25.7536 103.23 25.6833 103.713 25.5409C104.151 25.4162 104.553 25.1898 104.887 24.8801C105.226 24.555 105.487 24.1572 105.65 23.7166C105.849 23.1679 105.943 22.5869 105.929 22.0035V12.0905C105.928 12.0037 105.945 11.9175 105.978 11.8374C106.012 11.7573 106.061 11.6848 106.123 11.6244C106.182 11.562 106.254 11.5126 106.333 11.479C106.412 11.4455 106.497 11.4287 106.583 11.4296H108.522Z" fill="#037ADE"></path>
<path d="M119.463 11.4295C120.52 11.4075 121.573 11.5687 122.576 11.9061C123.394 12.1815 124.139 12.6387 124.756 13.2431C125.372 13.8476 125.844 14.5838 126.136 15.3965C126.463 16.2905 126.654 17.2284 126.704 18.1791C126.769 19.3864 126.769 20.5962 126.704 21.8034C126.654 22.7541 126.463 23.692 126.136 24.5861C125.843 25.3832 125.385 26.1093 124.791 26.7165C124.178 27.3245 123.438 27.789 122.624 28.0765C121.647 28.4128 120.618 28.5741 119.584 28.553H113.48C113.394 28.5539 113.309 28.5371 113.23 28.5036C113.151 28.4701 113.08 28.4206 113.021 28.3582C112.958 28.298 112.909 28.2256 112.875 28.1454C112.842 28.0652 112.825 27.979 112.826 27.8921V12.0661C112.825 11.9792 112.842 11.8931 112.876 11.813C112.909 11.7329 112.958 11.6604 113.021 11.6C113.08 11.5376 113.151 11.4881 113.23 11.4546C113.309 11.4211 113.394 11.4043 113.48 11.4052L119.463 11.4295ZM123.435 18.1878C123.406 17.6896 123.303 17.1985 123.13 16.7304C122.965 16.2902 122.709 15.8896 122.379 15.5548C122.026 15.2061 121.6 14.939 121.132 14.7721C120.556 14.5719 119.949 14.4765 119.339 14.4904H116.096V25.5095H119.463C120.048 25.5224 120.632 25.4269 121.183 25.2278C121.639 25.0606 122.054 24.7979 122.4 24.4574C122.728 24.123 122.98 23.722 123.139 23.2817C123.311 22.8092 123.413 22.3141 123.442 21.8121C123.504 20.6048 123.501 19.3949 123.435 18.1878Z" fill="#037ADE"></path>
<path d="M140.87 11.4296C140.956 11.4288 141.041 11.4457 141.12 11.4792C141.199 11.5127 141.271 11.5621 141.33 11.6244C141.392 11.6851 141.441 11.7577 141.474 11.8377C141.508 11.9178 141.524 12.0038 141.523 12.0904V13.8296C141.524 13.916 141.508 14.0017 141.475 14.0816C141.441 14.1614 141.392 14.2336 141.33 14.2939C141.271 14.3564 141.2 14.4061 141.12 14.4399C141.041 14.4737 140.956 14.4909 140.87 14.4904H133.148V19.2417H140.39C140.475 19.2408 140.56 19.2576 140.639 19.2912C140.719 19.3247 140.79 19.3742 140.849 19.4365C140.911 19.4972 140.96 19.5697 140.993 19.6498C141.027 19.7298 141.044 19.8158 141.043 19.9026V21.6417C141.044 21.7286 141.027 21.8146 140.994 21.8948C140.96 21.9749 140.911 22.0474 140.849 22.1078C140.79 22.1704 140.719 22.2202 140.64 22.254C140.561 22.2878 140.476 22.305 140.39 22.3044H133.148V27.9113C133.149 27.9981 133.132 28.0842 133.098 28.1643C133.065 28.2444 133.015 28.3169 132.953 28.3774C132.894 28.4398 132.823 28.4893 132.744 28.5228C132.665 28.5563 132.58 28.5731 132.494 28.5722H130.53C130.445 28.5731 130.36 28.5563 130.281 28.5228C130.202 28.4893 130.13 28.4398 130.071 28.3774C130.009 28.3172 129.959 28.2447 129.926 28.1646C129.892 28.0844 129.875 27.9982 129.877 27.9113V12.0852C129.876 11.9984 129.893 11.9123 129.926 11.8321C129.959 11.752 130.009 11.6795 130.071 11.6191C130.13 11.5568 130.202 11.5073 130.281 11.4738C130.36 11.4402 130.445 11.4234 130.53 11.4244L140.87 11.4296Z" fill="#037ADE"></path>
<path d="M144.99 28.5705C144.904 28.5712 144.818 28.5543 144.739 28.5208C144.66 28.4873 144.588 28.4379 144.529 28.3757C144.467 28.3151 144.418 28.2426 144.384 28.1625C144.351 28.0823 144.335 27.9963 144.336 27.9096V12.0835C144.335 11.9985 144.351 11.9142 144.383 11.8354C144.415 11.7566 144.462 11.6849 144.522 11.6244C144.581 11.5621 144.653 11.5127 144.732 11.4792C144.811 11.4457 144.897 11.4288 144.983 11.4296H146.957C147.043 11.4288 147.128 11.4457 147.207 11.4792C147.286 11.5127 147.358 11.5621 147.417 11.6244C147.479 11.6851 147.528 11.7577 147.561 11.8378C147.595 11.9178 147.611 12.0038 147.61 12.0905V27.9165C147.612 28.0033 147.595 28.0893 147.562 28.1694C147.529 28.2495 147.48 28.3221 147.417 28.3826C147.358 28.4449 147.286 28.4943 147.207 28.5278C147.128 28.5613 147.043 28.5782 146.957 28.5774L144.99 28.5705Z" fill="#037ADE"></path>
<path d="M162.355 28.5704C162.228 28.5813 162.101 28.5653 161.981 28.5233C161.861 28.4814 161.751 28.4144 161.659 28.3269C161.515 28.1634 161.409 28.0399 161.344 27.9582L157.494 22.546L153.668 27.9582C153.602 28.0399 153.494 28.1634 153.353 28.3269C153.261 28.4143 153.151 28.4812 153.031 28.5232C152.911 28.5652 152.784 28.5812 152.657 28.5704H150.609C150.523 28.5713 150.437 28.5545 150.358 28.521C150.279 28.4875 150.207 28.438 150.148 28.3756C150.086 28.315 150.037 28.2425 150.003 28.1624C149.97 28.0822 149.954 27.9962 149.955 27.9095C149.958 27.8152 149.983 27.723 150.028 27.6399L155.574 19.826L150.27 12.3565C150.225 12.2734 150.2 12.1812 150.197 12.0869C150.196 12.0002 150.212 11.9143 150.246 11.8342C150.279 11.7541 150.328 11.6815 150.39 11.6208C150.449 11.5586 150.521 11.5092 150.6 11.4757C150.679 11.4422 150.764 11.4253 150.85 11.426H152.885C153.012 11.4154 153.139 11.4316 153.259 11.4735C153.379 11.5155 153.489 11.5823 153.581 11.6695C153.725 11.833 153.831 11.9565 153.896 12.0382L157.565 17.2173L161.198 12.0504C161.263 11.9686 161.372 11.8452 161.513 11.6817C161.605 11.5943 161.715 11.5275 161.835 11.4855C161.955 11.4436 162.082 11.4274 162.209 11.4382H164.243C164.33 11.4372 164.415 11.454 164.494 11.4876C164.574 11.5211 164.645 11.5706 164.704 11.633C164.766 11.6937 164.815 11.7663 164.848 11.8464C164.881 11.9265 164.898 12.0124 164.897 12.0991C164.894 12.1931 164.869 12.2852 164.826 12.3686L159.478 19.9269L164.976 27.6399C165.02 27.723 165.045 27.8152 165.049 27.9095C165.05 27.9962 165.033 28.0822 165 28.1624C164.967 28.2425 164.918 28.315 164.856 28.3756C164.796 28.4378 164.725 28.4872 164.645 28.5207C164.566 28.5542 164.481 28.5711 164.395 28.5704H162.355Z" fill="#037ADE"></path>
<path d="M34.6417 7.10962H23.4644V13.8261H27.9252V18.2922H34.6417V7.10962Z" fill="url(#paint1_linear_416_10328)"></path>
<defs>
<linearGradient id="paint0_linear_416_10328" x1="12.5861" y1="11.8122" x2="29.4504" y2="31.2835" gradientUnits="userSpaceOnUse">
<stop stop-color="#03E5B7"></stop>











+<stop offset="1" stop-color="#037ADE"></stop>
</linearGradient>
<linearGradient id="paint1_linear_416_10328" x1="22.5391" y1="5.94962" x2="31.6191" y2="12.9601" gradientUnits="userSpaceOnUse">
<stop stop-color="#03E5B7"></stop>
<stop offset="1" stop-color="#037ADE"></stop>
</linearGradient>
</defs>
</svg>