<svg width="128" height="128" viewBox="7 7 33 33" fill="none" xmlns="http://www.w3.org/2000/svg">
<path d="M27.9252 20.2191C27.8685 21.8171 27.194 23.3307 26.0437 24.4413C24.8935 25.552 23.3572 26.1731 21.7583 26.1739C20.338 26.1728 18.9615 25.6819 17.861 24.7839C16.7606 23.886 16.0034 22.636 15.7174 21.2448C15.4314 19.8536 15.6339 18.4063 16.2908 17.147C16.9477 15.8877 18.0188 14.8936 19.3235 14.3322C20.0921 13.9996 20.9208 13.8285 21.7583 13.8296V7.11304C19.2209 7.11449 16.7404 7.86527 14.6282 9.27118C12.5159 10.6771 10.8659 12.6755 9.88509 15.0157C8.90434 17.3558 8.63654 19.9336 9.1153 22.4254C9.59407 24.9172 10.7981 27.2121 12.5762 29.0222C14.3544 30.8322 16.6275 32.0769 19.1104 32.5999C21.5933 33.1229 24.1754 32.901 26.5326 31.962C28.8899 31.023 30.9173 29.4088 32.3606 27.3219C33.8039 25.2349 34.5986 22.7683 34.6452 20.2313V20H27.9304C27.9304 20.0626 27.9287 20.1252 27.9252 20.2191Z" fill="url(#paint0_linear_416_10328)"></path>
<path d="M34.6417 7.10962H23.4644V13.8261H27.9252V18.2922H34.6417V7.10962Z" fill="url(#paint1_linear_416_10328)"></path>
<defs>
<linearGradient id="paint0_linear_416_10328" x1="12.5861" y1="11.8122" x2="29.4504" y2="31.2835" gradientUnits="userSpaceOnUse">
<stop stop-color="#03E5B7"></stop>
+<stop offset="1" stop-color="#037ADE"></stop>
</linearGradient>
<linearGradient id="paint1_linear_416_10328" x1="22.5391" y1="5.94962" x2="31.6191" y2="12.9601" gradientUnits="userSpaceOnUse">
<stop stop-color="#03E5B7"></stop>
<stop offset="1" stop-color="#037ADE"></stop>
</linearGradient>
</defs>
</svg>