<svg width="103" height="103" viewBox="0 0 103 103" fill="none" xmlns="http://www.w3.org/2000/svg">
<path fill-rule="evenodd" clip-rule="evenodd" d="M0.0317383 0V70.3837L32.6379 103H103V32.9683L70.0404 0H0.0317383Z" fill="#242E3D"></path>
<path fill-rule="evenodd" clip-rule="evenodd" d="M33.527 100.854L2.17725 69.4942V2.14551H69.1523L100.854 33.8588V100.854H33.527Z" fill="white"></path>
<path fill-rule="evenodd" clip-rule="evenodd" d="M84.1405 56.2562H85.6854C86.4456 56.3615 87.1409 55.8321 87.2447 55.0748C87.2606 54.9435 87.2606 54.8123 87.2447 54.681C87.3558 53.9381 86.8408 53.2472 86.098 53.1375C85.971 53.1188 85.8426 53.1188 85.7157 53.1361H84.139L84.1405 56.2562ZM82.0013 61.7997V51.5003H85.9681C86.8928 51.4498 87.8015 51.7527 88.5055 52.3471C89.1488 52.9399 89.4835 53.7823 89.4489 54.6507C89.4489 55.2234 89.2772 55.7845 88.9512 56.2562C88.6079 56.7495 88.1275 57.1361 87.5707 57.3727L90.1268 61.8012H87.8275L85.5945 57.8026H84.1362V61.8012L82.0013 61.7997ZM71.2518 61.7997V51.5003H78.0257V53.2241H73.4776V55.6619H77.1776V57.3857H73.4776V60.0759H78.0257V61.7997H71.2518ZM60.661 54.6507V61.7997H58.7006V51.5003H61.0779L65.2669 58.7099V51.5003H67.2287V61.7997H64.8529L60.661 54.6507ZM49.9721 61.7997V53.2832H46.8375V51.5003H55.3367V53.2832H52.2022V61.7997H49.9721ZM38.7394 56.2562H40.2843C41.043 56.3615 41.7426 55.8307 41.8465 55.0719C41.8653 54.9435 41.8638 54.8108 41.8451 54.681C41.9547 53.9381 41.4397 53.2472 40.6954 53.1375C40.5699 53.1188 40.4415 53.1188 40.3146 53.1361H38.7394V56.2562ZM36.6001 61.7997V51.5003H40.567C41.4902 51.4498 42.399 51.7527 43.1072 52.3471C43.7434 52.9399 44.0853 53.7823 44.0434 54.6507C44.0506 55.2234 43.879 55.7845 43.553 56.2562C43.2053 56.7495 42.7264 57.1361 42.1725 57.3727L44.7272 61.8012H42.4235L40.1934 57.8026H38.735V61.8012L36.6001 61.7997ZM27.3436 57.8473H29.9286L28.6217 53.5357L27.3436 57.8473ZM31.1187 61.7997L30.3902 59.4513H26.8719L26.1738 61.7997H23.8413L27.4663 51.5003H29.9185L33.5435 61.7997H31.1187ZM16.7889 56.3759H18.3035C18.7233 56.4033 19.1358 56.2548 19.4416 55.9663C19.9667 55.2551 19.9667 54.2843 19.4416 53.5746C19.1358 53.2847 18.7233 53.1361 18.3035 53.1649H16.7889V56.3759ZM16.7889 58.0406V61.7997H14.6194V51.5003H18.5574C19.4864 51.4498 20.3966 51.7643 21.0976 52.3759C22.3454 53.7275 22.3454 55.8119 21.0976 57.1635C20.3966 57.7752 19.4864 58.0896 18.5574 58.0406H16.7889Z" fill="#242E3D"></path>
<path fill-rule="evenodd" clip-rule="evenodd" d="M42.4773 26.9131C41.8758 26.9145 41.2771 26.8467 40.6915 26.7097C40.2255 26.6159 39.774 26.4587 39.3499 26.2423C39.1999 26.1731 39.0773 26.0605 38.9951 25.9177C38.9489 25.8153 38.9244 25.7043 38.9244 25.5917V25.0032C38.9244 24.7594 39.011 24.6382 39.1869 24.6382C39.2605 24.6382 39.3326 24.6527 39.4004 24.6786C39.4754 24.706 39.5721 24.7464 39.6961 24.7998C40.1058 24.9816 40.5342 25.1186 40.9742 25.2051C41.43 25.3004 41.8916 25.348 42.3561 25.348C42.9461 25.3826 43.5346 25.2484 44.0525 24.9628C44.4376 24.7335 44.667 24.3137 44.6526 23.8651C44.6612 23.5636 44.5473 23.2708 44.3381 23.0529C43.9991 22.7659 43.5995 22.5567 43.1697 22.4442L41.4848 21.9148C40.7564 21.7258 40.1073 21.3147 39.6255 20.7363C39.2504 20.2545 39.047 19.6616 39.047 19.05C39.0369 18.6014 39.1466 18.1571 39.3615 17.7633C39.5706 17.3911 39.8548 17.0666 40.1952 16.8084C40.5573 16.5357 40.9655 16.3309 41.4026 16.2083C41.8772 16.0713 42.3676 16.002 42.861 16.0049C43.1235 16.0049 43.3846 16.0222 43.6428 16.0554C43.9082 16.09 44.1578 16.1347 44.3944 16.1881C44.6324 16.2429 44.8531 16.3035 45.055 16.3713C45.2223 16.4247 45.3868 16.4925 45.5426 16.5733C45.6738 16.6454 45.7907 16.742 45.8859 16.8589C45.9595 16.9728 45.9941 17.1084 45.9869 17.2455V17.7936C45.9869 18.0374 45.8989 18.1586 45.7229 18.1586C45.5657 18.1398 45.4142 18.0922 45.2757 18.0157C44.5732 17.7114 43.813 17.5585 43.0456 17.5686C42.5105 17.5397 41.9782 17.6522 41.5007 17.8946C41.1372 18.1081 40.9251 18.5091 40.9526 18.9303C40.9453 19.2419 41.0694 19.5405 41.2959 19.754C41.6738 20.054 42.1094 20.2718 42.5754 20.393L44.2198 20.9224C44.9209 21.1012 45.5498 21.4907 46.0215 22.0374C46.3778 22.5048 46.5668 23.076 46.5595 23.6631C46.5682 24.1319 46.4629 24.595 46.2552 25.0147C46.0518 25.4129 45.7647 25.7634 45.4128 26.0404C45.0291 26.3375 44.592 26.5582 44.126 26.6895C43.5909 26.8438 43.037 26.9188 42.4802 26.9145L42.4773 26.9131ZM27.5734 26.6087C27.4162 26.6217 27.2589 26.5827 27.1262 26.4976C27.0036 26.3721 26.9185 26.212 26.8824 26.0404L24.1605 17.0608C24.11 16.9094 24.0754 16.7521 24.0595 16.5934C24.0407 16.4564 24.1345 16.3295 24.2715 16.3093C24.2961 16.3064 24.3206 16.3064 24.3437 16.3093H25.4803C25.6419 16.2934 25.802 16.3338 25.9376 16.4203C26.0545 16.5502 26.1352 16.706 26.1713 16.8776L28.1216 24.5575L29.9276 16.8776C29.9521 16.7045 30.03 16.5458 30.1526 16.4203C30.2911 16.3338 30.4555 16.2949 30.6185 16.3093H31.5533C31.7177 16.2949 31.8807 16.3338 32.0206 16.4203C32.1418 16.5458 32.2197 16.706 32.2428 16.8776L34.0718 24.6584L36.0827 16.8776C36.1173 16.706 36.1981 16.5502 36.3149 16.4203C36.4505 16.3338 36.6121 16.2934 36.7722 16.3093H37.8483C37.9868 16.2891 38.1137 16.3843 38.1325 16.5213C38.1368 16.5458 38.1368 16.5689 38.1325 16.5934C38.1325 16.6555 38.1253 16.7161 38.1137 16.7766C38.0906 16.8718 38.0604 16.9671 38.0272 17.0608L35.2244 26.0404C35.1898 26.212 35.1047 26.3721 34.9806 26.4976C34.8479 26.5827 34.6907 26.6217 34.5349 26.6087H33.5381C33.3737 26.6231 33.2092 26.5813 33.0722 26.4875C32.9525 26.3577 32.8731 26.1947 32.8486 26.0202L31.0412 18.5437L29.2568 26.023C29.2308 26.1976 29.1529 26.3606 29.0332 26.4904C28.8962 26.5842 28.7317 26.6274 28.5658 26.613L27.5734 26.6087ZM18.252 25.3494C18.6617 25.3436 19.067 25.2715 19.4536 25.1359C19.8777 24.9902 20.2556 24.7349 20.5499 24.3945C20.7374 24.1824 20.873 23.9271 20.9466 23.653C21.0259 23.3241 21.0634 22.9866 21.0576 22.6476V22.16C20.7057 22.0778 20.3494 22.0129 19.9916 21.9667C19.631 21.9206 19.2675 21.8975 18.904 21.8975C18.2924 21.8499 17.6837 22.0158 17.1788 22.3634C16.4792 23.0573 16.4186 24.168 17.036 24.934C17.3706 25.2297 17.8091 25.3797 18.2549 25.3494H18.252ZM22.9661 23.5823C22.956 23.9329 23.0007 24.282 23.0988 24.6181C23.1998 24.9066 23.3253 25.185 23.4753 25.4518C23.5243 25.5312 23.5517 25.622 23.5561 25.7158C23.5402 25.86 23.458 25.9884 23.3325 26.0591L22.6011 26.5467C22.5117 26.6087 22.4049 26.6433 22.2968 26.6476C22.1655 26.6433 22.0414 26.5842 21.9534 26.4861C21.7933 26.3245 21.6534 26.1442 21.5366 25.948C21.4226 25.7504 21.3043 25.5239 21.1817 25.2672C20.3537 26.3 19.0944 26.8914 17.7702 26.8712C16.9177 26.916 16.0825 26.6159 15.4536 26.0389C14.2404 24.7032 14.3313 22.6389 15.6555 21.4157C16.4633 20.7796 17.473 20.4579 18.5001 20.5127C18.9112 20.5142 19.3223 20.5444 19.7277 20.6036C20.1546 20.6656 20.5989 20.7493 21.0591 20.8575V20.005C21.1269 19.3371 20.9307 18.6692 20.5095 18.1456C19.9714 17.7316 19.2964 17.5397 18.6227 17.6075C18.2015 17.609 17.7817 17.6609 17.3735 17.7604C16.948 17.8614 16.5311 17.9927 16.1243 18.1557C15.993 18.2163 15.8575 18.2667 15.7175 18.3086C15.6584 18.3259 15.5964 18.336 15.5358 18.3389C15.3728 18.3389 15.292 18.2177 15.292 17.9725V17.4041C15.2805 17.2642 15.3079 17.1243 15.3728 16.9988C15.4593 16.8906 15.5704 16.8069 15.6988 16.7536C16.1647 16.5285 16.6537 16.3526 17.1571 16.2256C17.7471 16.0741 18.3544 15.9991 18.9631 16.002C20.0609 15.9083 21.1514 16.2472 22.001 16.9469C22.6978 17.7272 23.0469 18.7586 22.9646 19.8016L22.9661 23.5823Z" fill="#242E3D"></path>
<path fill-rule="evenodd" clip-rule="evenodd" d="M45.2583 35.1008C45.1184 35.4499 45.4184 35.5898 45.7343 35.3258C47.7841 33.6093 48.3135 30.016 47.8937 29.4981C47.474 28.9788 43.8937 28.5403 41.7054 30.0766C41.3693 30.3117 41.4285 30.6377 41.8006 30.5916C43.0325 30.443 45.7733 30.1141 46.2637 30.7401C46.7527 31.3647 45.7199 33.9454 45.2583 35.0979M44.6726 32.5562C40.8515 35.3763 35.3123 36.8765 30.542 36.8765C24.169 36.9097 18.0139 34.5613 13.281 30.2901C12.9233 29.967 13.2421 29.5255 13.672 29.7751C18.9313 32.7827 24.8859 34.3622 30.9444 34.3579C35.471 34.3363 39.947 33.4203 44.1173 31.6619C44.7635 31.3878 45.3059 32.0917 44.6726 32.5548" fill="#FF9900"></path>
</svg>